<?xml version="1.0" encoding="UTF-8"?>
<!DOCTYPE svg PUBLIC "-//W3C//DTD SVG 1.1//EN" "http://www.w3.org/Graphics/SVG/1.1/DTD/svg11.dtd">
<!-- Creator: CorelDRAW 2020 (64 Bit) -->
<svg xmlns="http://www.w3.org/2000/svg" xml:space="preserve" width="109.44mm" height="85.283mm" version="1.1" style="shape-rendering:geometricPrecision; text-rendering:geometricPrecision; image-rendering:optimizeQuality; fill-rule:evenodd; clip-rule:evenodd"
viewBox="0 0 3674.35 2863.29"
 xmlns:xlink="http://www.w3.org/1999/xlink"
 xmlns:xodm="http://www.corel.com/coreldraw/odm/2003">
 <defs>
  <style type="text/css">
   <![CDATA[
    .fil1 {fill:#FEFEFE;fill-rule:nonzero}
    .fil0 {fill:#DF4D50;fill-rule:nonzero}
   ]]>
  </style>
   <clipPath id="id0">
    <path d="M160.73 189.18l0 556.38 1.9 0 1.9 2.16 0 4.31 1.9 0 4.76 4.31 0 4.31 3.81 0 2.86 2.16 8.56 4.31 6.66 2.16 12.37 2.16 295.07 2.16 0 1424.03 1.9 0 0 30.19 1.9 0 0 17.25 1.9 0 0 11.5 2.86 0 0 8.63 1.9 0 0 10.78 1.9 0 0 8.63 2.85 0 0 8.63 1.9 0 0 8.63 1.9 0 0 8.63 1.9 0 0 8.63 2.86 0 0 6.47 1.9 0 0 6.47 1.9 0 0 6.47 1.9 0 0 6.47 2.85 0 0 6.47 1.9 0 0 6.47 1.9 0 0 6.47 2.86 0 0 4.31 1.9 0 0 6.47 1.9 0 0 4.31 1.9 0 0 4.31 2.85 0 0 4.31 1.9 0 0 4.31 1.9 0 0 6.47 1.9 0 0 4.31 2.86 0 0 4.31 1.9 0 0 4.31 1.9 0 0 4.31 2.85 0 0 4.31 1.9 0 0 4.31 1.9 0 0 4.31 1.9 0 2.86 2.16 0 4.31 1.9 0 0 4.31 1.9 0 0 5.03 1.9 0 2.85 2.16 0 4.31 1.9 0 0 4.31 1.9 0 2.86 2.16 0 4.31 1.9 0 0 4.31 1.9 0 1.9 2.16 0 4.31 2.85 0 3.81 4.31 0 4.31 2.86 0 3.81 4.31 0 4.31 1.9 0 6.66 6.47 0 4.31 1.9 0 4.76 4.31 0 4.31 1.9 0 17.13 17.25 0 4.31 2.85 0 30.46 30.19 3.81 2.16 19.99 19.41 3.81 2.16 6.66 6.47 3.81 2.16 4.76 4.31 4.76 2.16 3.81 4.31 4.76 2.16 5.71 6.47 4.76 2.16 1.9 2.16 8.56 4.31 2.86 2.16 8.56 4.31 1.9 2.88 8.57 4.31 1.9 2.16 9.52 4.31 1.9 2.16 6.66 2.16 34.27 17.25 6.66 2.16 3.81 2.16 39.02 12.94 4.76 2.16 51.4 12.94 13.33 2.16 15.23 2.16 13.33 2.16 15.23 2.16 39.03 2.16 1603.83 2.16 17.13 0 0 -2.16 39.02 -2.16 12.38 -2.16 15.23 -2.16 26.65 -4.31 25.7 -6.47 10.47 -2.16 8.57 -2.16 33.31 -10.78 3.81 -2.16 19.99 -6.47 20.94 -10.78 6.66 -2.16 25.7 -12.94 2.85 -2.16 8.57 -5.03 1.9 -1.44 4.76 -2.88 1.9 -2.16 8.57 -4.31 1.9 -2.16 8.56 -4.31 4.76 -4.31 3.81 -2.16 4.76 -4.31 4.76 -2.16 3.81 -4.31 4.76 -2.16 3.81 -4.31 4.76 -2.16 1.9 -2.16 4.76 -2.16 71.39 -71.17 1.9 -4.31 6.66 -6.47 1.9 -4.31 4.76 -4.31 1.9 -4.31 1.9 -2.16 1.9 -4.31 4.76 -4.31 1.9 -4.31 4.76 -4.31 1.9 -4.31 1.9 -2.16 2.86 -4.31 1.9 -2.16 1.9 -4.31 1.9 -2.16 2.85 -4.31 1.9 -2.16 6.66 -13.66 1.9 -2.16 21.89 -43.13 1.9 -6.47 4.76 -8.63 1.9 -6.47 1.9 -4.31 13.33 -38.81 12.37 -51.76 4.76 -30.91 1.9 -12.94 2.86 -28.03 1.9 -1424.03 294.12 -2.16 13.33 -2.16 6.66 -2.16 1.9 -2.16 3.81 -2.16 2.86 -2.16 3.81 -2.16 4.76 -4.31 1.9 -4.31 1.9 -2.16 2.86 -6.47 1.9 -547.04 0 -2.87 -1.9 0 0 -6.47 -2.86 0 0 -4.31 -1.9 -2.16 -1.9 0 0 -4.31 -1314.48 0 -3.81 4.31 -4.76 8.63 -1.9 8.63 -1.9 10.78 0 515.41 1.9 0 0 10.78 1.9 0 0 8.63 1.9 0 0 4.31 2.86 0 0 4.31 1.9 0 10.47 10.78 8.57 4.31 6.66 2.16 13.33 2.16 285.55 2.16 -1.9 1145.12 -1.9 21.56 -6.66 25.88 -1.91 4.31 -2.85 2.16 -8.57 17.25 -6.66 6.47 -1.9 4.31 -6.66 6.47 0 4.31 -3.81 0 -4.76 4.31 -3.81 2.16 -6.66 6.47 -21.89 10.78 -1.9 2.16 -4.76 2.16 -19.04 6.47 -4.76 2.16 -12.38 2.16 -1117.45 2.16 0 -2.16 -10.47 -2.16 -8.56 -2.16 -13.33 -4.31 -17.13 -8.63 -2.86 -2.16 -8.56 -4.31 -5.71 -6.47 -4.76 -2.16 -10.47 -10.78 -2.86 0 0 -4.31 -5.71 -6.47 -2.85 0 0 -4.31 -1.9 -2.16 -1.9 0 0 -4.31 -2.86 0 0 -4.31 -1.9 -2.16 -1.9 0 0 -4.31 -1.9 0 0 -4.31 -2.86 0 0 -4.31 -1.9 0 0 -4.31 -1.9 0 0 -6.47 -1.9 0 0 -6.47 -2.85 0 0 -8.63 -1.9 0 0 -28.03 -1.9 0 0 -1136.49 287.45 -2.16 13.33 -2.16 6.66 -2.16 8.57 -4.31 1.9 -2.16 4.76 0 0 -4.31 1.9 -2.16 6.66 -12.94 1.9 -12.94 1.9 -524.04 -1.9 0 0 -10.78 -1.9 0 0 -6.47 -2.86 -2.16 -1.9 0 0 -4.31 -1.9 0 0 -4.31 -1.9 -2.16 -1307.82 0 -4.76 4.31 -1.9 4.31 -1.9 2.16 -1.9 4.31z"/>
   </clipPath>
 </defs>
 <g id="Camada_x0020_1">
  <metadata id="CorelCorpID_0Corel-Layer"/>
  <path class="fil0" d="M1041.06 2863.29c-21.66,0 -45.46,-2.18 -67.25,-4.33 -23.8,-2.19 -45.46,-4.34 -69.4,-8.67 -21.64,-4.32 -43.3,-10.82 -65.08,-17.3 -21.65,-6.53 -43.29,-15.15 -65.07,-23.81 -21.65,-8.81 -41.13,-17.48 -62.78,-28.28 -19.62,-10.83 -39.1,-23.83 -58.58,-36.79 -19.61,-10.82 -36.93,-26 -54.25,-38.98 -17.32,-15.29 -34.77,-30.41 -52.09,-47.77 -15.15,-15.15 -30.31,-32.43 -45.59,-49.78 -15.16,-17.45 -28.14,-36.92 -41.13,-56.4 -12.98,-17.32 -23.93,-36.82 -34.76,-58.59 -10.82,-19.49 -21.66,-41.11 -30.31,-60.61 -8.66,-21.66 -15.14,-43.42 -21.78,-65.08 -6.5,-21.66 -12.99,-43.28 -17.32,-67.11 -4.32,-21.76 -8.66,-43.4 -10.82,-67.22 -2.16,-23.81 -2.16,-45.58 -2.16,-69.41l0 -1235.49 -136.65 0c-12.99,0 -28.15,-2.14 -41.26,-4.32 -12.99,-2.16 -25.98,-6.49 -36.81,-10.83 -12.98,-4.32 -26.1,-10.81 -36.93,-19.48 -10.82,-6.48 -21.65,-15.15 -30.31,-26.1 -8.66,-8.65 -17.32,-19.47 -26.1,-30.3 -6.49,-10.84 -12.99,-21.65 -19.49,-34.65 -4.33,-12.98 -8.65,-25.97 -10.82,-39.1 -2.17,-12.98 -4.33,-25.97 -4.33,-38.97l0 -515.85c0,-12.99 2.16,-25.97 4.33,-41.13 2.17,-13.12 6.49,-26.1 10.82,-39.1 4.33,-10.82 10.83,-23.81 19.49,-34.63 6.62,-10.82 15.28,-21.65 26.1,-32.61 8.66,-8.66 19.49,-17.32 30.31,-23.82 10.83,-8.65 23.95,-15.15 34.77,-19.47 12.99,-6.5 25.98,-10.82 38.97,-12.99 13.11,-2.16 26.11,-4.32 41.26,-4.32l1236.29 0c13.11,0 26.1,2.17 39.1,4.32 12.97,4.33 25.98,6.49 39.1,12.99 10.81,4.32 23.8,10.82 34.63,17.32 10.82,8.66 21.63,17.31 30.44,25.97 10.83,10.96 17.3,19.62 25.96,30.44 6.5,12.99 13.01,23.82 19.48,36.8 4.33,10.83 8.67,23.82 10.84,36.94 2.16,12.98 4.32,28.13 4.32,41.12l0 513.69c0,15.16 -2.17,28.14 -4.32,41.13 -2.17,13.11 -6.5,26.12 -10.84,39.09 -6.48,10.82 -10.81,23.82 -19.48,34.64 -6.48,10.83 -15.14,21.64 -25.96,30.3 -8.81,10.97 -19.61,19.61 -30.44,26.12 -10.83,6.5 -23.82,12.99 -34.63,19.47 -13.12,4.33 -26.13,8.67 -39.1,10.84 -12.99,2.16 -25.99,4.33 -39.1,4.33l-130.17 0 0 964.62 1049.87 0 0 -964.62 -127.99 0c-12.99,0 -25.97,-2.18 -41.13,-4.33 -13.11,-2.17 -26.12,-6.5 -36.93,-10.84 -12.99,-6.48 -23.82,-12.97 -36.8,-19.47 -10.95,-6.5 -21.78,-15.15 -30.44,-26.12 -8.65,-8.66 -17.31,-19.47 -25.97,-30.3 -6.5,-10.82 -12.98,-23.82 -19.63,-34.64 -4.32,-12.97 -8.66,-25.98 -10.81,-39.09 -2.17,-12.99 -4.33,-25.97 -4.33,-41.13l0 -513.69c0,-12.99 2.17,-28.14 4.33,-41.12 2.16,-13.12 6.49,-26.11 10.81,-36.94 6.64,-12.98 13.12,-25.97 19.63,-36.8 8.66,-10.81 17.33,-21.64 25.97,-30.44 8.66,-8.66 19.5,-17.32 30.44,-25.97 12.98,-6.49 23.8,-12.99 36.8,-17.32 10.81,-6.5 23.82,-10.82 36.93,-12.99 15.16,-2.16 28.14,-4.32 41.13,-4.32l1234.26 0c12.98,0 28.13,2.17 41.12,4.32 12.98,2.17 26.12,6.49 36.93,12.99 12.99,4.32 25.97,10.82 36.8,17.32 10.96,8.66 21.78,17.31 30.44,25.97 8.66,8.8 17.31,19.62 25.97,30.44 6.49,10.83 12.99,23.82 17.46,36.8 6.49,10.83 10.83,23.82 12.98,36.94 2.17,12.98 4.33,28.13 4.33,41.12l0 513.69c0,15.16 -2.17,28.14 -4.33,41.13 -2.16,13.11 -6.49,26.12 -12.98,39.09 -4.47,10.82 -10.97,23.82 -17.46,34.64 -8.66,10.83 -17.31,21.64 -25.97,30.3 -8.66,10.97 -19.48,19.61 -30.44,26.12 -10.82,6.5 -23.8,12.99 -36.8,19.47 -10.81,4.33 -23.95,8.67 -36.93,10.84 -12.99,2.16 -28.14,4.33 -41.12,4.33l-138.83 0 0 1235.47c0,23.79 0,45.56 -2.16,69.39 -2.16,21.68 -6.62,45.46 -10.96,67.25 -4.33,21.63 -10.82,45.46 -17.31,67.08 -6.49,21.68 -12.99,43.44 -21.64,65.07 -8.67,19.5 -19.49,41.16 -30.44,60.63 -10.82,19.64 -21.65,41.25 -34.65,58.57 -12.99,19.46 -26.1,38.96 -39.1,56.43 -15.15,17.3 -30.31,34.63 -47.62,49.78 -15.28,17.31 -32.61,32.46 -49.92,47.75 -17.31,13.01 -34.77,28.16 -54.25,41.16 -19.48,10.8 -39.11,23.8 -58.58,34.63 -21.65,10.8 -41.13,21.63 -62.92,30.44 -19.48,8.66 -41.12,15.16 -62.9,21.63 -23.81,8.66 -45.46,13.01 -67.24,17.33 -21.65,4.33 -45.46,8.64 -67.24,10.83 -23.81,2.16 -45.46,4.33 -69.41,4.33l-1592.09 0z"/>
  <path class="fil1" d="M1041.06 2785.21c-19.49,0 -38.98,0 -60.61,-2.15 -19.62,-2.17 -39.1,-4.32 -60.75,-8.65 -19.61,-4.36 -39.09,-8.69 -58.59,-15.16 -19.61,-6.51 -39.09,-12.99 -56.42,-21.68 -19.47,-6.48 -39.09,-15.15 -56.41,-25.95 -17.32,-8.68 -34.63,-19.63 -52.08,-30.44 -17.32,-10.82 -32.47,-23.83 -49.79,-36.79 -15.3,-13 -30.44,-26 -43.43,-41.15 -15.15,-15.3 -28.27,-28.27 -41.27,-45.6 -12.98,-15.15 -25.97,-32.45 -36.8,-47.59 -10.81,-17.48 -21.78,-34.79 -32.6,-52.11 -8.66,-19.48 -17.31,-36.79 -25.98,-56.26 -6.5,-19.64 -12.98,-36.97 -19.48,-56.45 -6.63,-19.47 -10.96,-38.98 -15.3,-60.75 -4.32,-19.47 -6.48,-38.96 -8.65,-60.58 -2.17,-19.5 -4.33,-39.12 -4.33,-60.75l0 -1313.54 -212.54 0c-8.66,0 -17.31,0 -25.97,-2.16 -8.8,0 -15.29,-4.34 -23.95,-6.5 -8.66,-4.32 -15.15,-6.49 -21.65,-12.99 -8.66,-4.32 -15.15,-8.65 -19.47,-15.14 -6.5,-6.51 -13.12,-13 -17.46,-19.5 -4.33,-6.48 -8.66,-15.15 -10.83,-21.78 -4.32,-8.66 -6.48,-17.32 -8.65,-23.81 0,-8.66 -2.16,-17.32 -2.16,-25.99l0 -515.85c0,-6.49 2.16,-15.16 2.16,-23.81 2.17,-8.67 4.33,-17.32 8.65,-23.95 2.17,-8.66 6.5,-15.16 10.83,-23.81 4.34,-6.5 10.96,-13.01 17.46,-19.48 4.32,-4.35 10.82,-10.83 19.47,-15.16 6.5,-4.32 12.99,-8.66 21.65,-10.82 8.66,-4.32 15.15,-6.49 23.95,-8.65 8.67,-2.17 17.31,-2.17 25.97,-2.17l1236.29 0c6.61,0 15.28,0 23.92,2.17 8.67,2.16 17.33,4.32 23.83,8.65 8.66,2.17 15.14,6.5 23.94,10.82 6.5,4.33 12.98,10.81 19.48,15.16 4.33,6.48 10.82,12.98 15.16,19.48 4.32,8.65 8.65,15.15 10.81,23.81 4.34,6.63 6.5,15.28 8.66,23.95 2.17,8.65 2.17,17.31 2.17,23.81l0 515.85c0,8.67 0,17.33 -2.17,25.99 -2.16,6.49 -4.32,15.15 -8.66,23.81 -2.17,6.63 -6.49,15.3 -10.81,21.78 -4.34,6.49 -10.83,12.98 -15.16,19.5 -6.5,6.49 -12.98,10.81 -19.48,15.14 -8.8,6.5 -15.28,8.67 -23.94,12.99 -6.5,2.16 -15.16,6.5 -23.83,6.5 -8.65,2.16 -17.31,2.16 -23.92,2.16l-210.37 0 0 1060.01c0,8.64 2.16,15.15 6.49,23.78 2.16,6.53 6.48,15.2 13.11,19.5 6.49,6.5 12.99,10.85 19.48,15.14 8.66,2.19 17.32,4.34 23.81,4.34l1080.15 0c8.67,0 17.47,-2.16 23.95,-6.48 8.66,-2.16 15.16,-6.5 21.67,-13 4.31,-6.5 8.66,-12.97 12.98,-19.5 2.17,-8.63 4.32,-15.15 4.32,-23.78l0 -1060.01 -206.03 0c-8.67,0 -17.33,0 -25.99,-2.16 -8.66,0 -15.16,-4.34 -23.94,-6.5 -8.67,-4.32 -15.17,-6.49 -21.66,-12.99 -6.48,-4.32 -12.98,-8.65 -19.47,-15.14 -6.5,-6.51 -10.82,-13 -17.31,-19.5 -4.33,-6.48 -8.8,-15.15 -10.97,-21.78 -4.31,-8.66 -6.49,-17.32 -8.66,-23.81 0,-8.66 -2.16,-17.32 -2.16,-25.99l0 -515.85c0,-6.49 2.16,-15.16 2.16,-23.81 2.17,-8.67 4.35,-17.32 8.66,-23.95 2.17,-8.66 6.63,-15.16 10.97,-23.81 6.49,-6.5 10.81,-13.01 17.31,-19.48 6.49,-4.35 12.99,-10.83 19.47,-15.16 6.49,-4.32 12.99,-8.66 21.66,-10.82 8.78,-4.32 15.28,-6.49 23.94,-8.65 8.66,-2.17 17.32,-2.17 25.99,-2.17l1234.25 0c8.66,0 17.32,0 25.96,2.17 6.5,2.16 15.16,4.32 23.82,8.65 6.49,2.17 15.29,6.5 21.78,10.82 6.49,4.33 12.99,10.81 19.48,15.16 6.49,6.48 10.82,12.98 15.15,19.48 6.5,8.65 8.66,15.15 12.99,23.81 2.17,6.63 4.47,15.28 6.63,23.95 2.16,8.65 2.16,17.31 2.16,23.81l0 515.85c0,8.67 0,17.33 -2.16,25.99 -2.17,6.49 -4.47,15.15 -6.63,23.81 -4.33,6.63 -6.49,15.3 -12.99,21.78 -4.32,6.49 -8.66,12.98 -15.15,19.5 -6.49,6.49 -12.99,10.81 -19.48,15.14 -6.49,6.5 -15.29,8.67 -21.78,12.99 -8.66,2.16 -17.31,6.5 -23.82,6.5 -8.65,2.16 -17.3,2.16 -25.96,2.16l-214.85 0 0 1313.54c0,21.63 0,41.26 -2.17,60.75 -2.15,21.63 -4.32,41.11 -8.65,60.58 -4.32,19.62 -8.66,39.12 -15.15,58.6 -6.49,19.47 -12.99,38.96 -19.49,58.59 -8.65,17.28 -17.31,36.78 -26.11,54.1 -10.81,17.31 -21.64,34.63 -32.46,52.08 -10.81,17.33 -23.82,32.48 -34.76,49.78 -13.01,15.15 -28.14,30.3 -41.15,43.44 -15.14,15.15 -30.44,28.15 -45.59,41.11 -15.14,12.99 -32.47,25.97 -47.76,36.8 -17.32,10.83 -34.63,21.79 -51.95,32.62 -19.61,8.65 -36.94,17.33 -56.41,25.95 -17.46,6.53 -36.94,15.16 -56.41,19.48 -19.48,6.53 -39.11,13 -58.58,15.15 -19.48,4.32 -41.27,8.68 -60.75,10.85 -19.48,2.15 -38.97,2.15 -60.75,2.15l-1592.09 0z"/>
  <g style="clip-path:url(#id0)">
   <image x="159.78" y="173.36" width="3358.06" height="2536.07" xlink:href="Unopar_Images\Unopar_ImgID1.png"/>
  </g>
 </g>
</svg>
